<svg xmlns="http://www.w3.org/2000/svg" width="25" height="26" fill="none"><path fill="#fff" fill-opacity=".7" d="m19.544 14.637-7.866 8.08c-.321.329-.475.714-.462 1.153a1.674 1.674 0 0 0 1.626 1.63c.428.013.803-.145 1.123-.476L24.56 14.143a1.46 1.46 0 0 0 .342-.536 1.97 1.97 0 0 0-.003-1.237 1.414 1.414 0 0 0-.34-.535L13.963.953A1.478 1.478 0 0 0 12.86.5c-.442 0-.823.151-1.143.453-.321.33-.482.722-.482 1.176 0 .454.16.845.482 1.174l7.827 8.037H1.605c-.455 0-.836.158-1.144.475A1.611 1.611 0 0 0 0 12.989c.001.466.155.858.462 1.175.307.318.688.476 1.143.473h17.939Z"/></svg>